<svg viewBox="80 30 1040 200" xmlns="http://www.w3.org/2000/svg">
  <defs>
    <!-- Gradient for fading effect -->
    <linearGradient id="fadeGradient" x1="0%" y1="0%" x2="100%" y2="0%">
      <stop offset="0%" style="stop-color:#94a3b8;stop-opacity:0.2" />
      <stop offset="100%" style="stop-color:#3b82f6;stop-opacity:1" />
    </linearGradient>

    <!-- Shadow filter -->
    <filter id="shadow" x="-20%" y="-20%" width="140%" height="140%">
      <feGaussianBlur in="SourceAlpha" stdDeviation="2"/>
      <feOffset dx="0" dy="2" result="offsetblur"/>
      <feFlood flood-color="#000000" flood-opacity="0.1"/>
      <feComposite in2="offsetblur" operator="in"/>
      <feMerge>
        <feMergeNode/>
        <feMergeNode in="SourceGraphic"/>
      </feMerge>
    </filter>
  </defs>

  <!-- Background -->
  <rect x="50" y="20" width="1120" height="260" fill="#f8fafc"/>

  <!-- Title -->
  <text x="600" y="50" text-anchor="middle" font-family="system-ui, -apple-system, sans-serif" font-size="24" font-weight="600" fill="#1e293b">
    6 Months of Git History: The Forgetting Curve
  </text>

  <!-- Timeline -->
  <g transform="translate(100, 120)">
    <!-- Horizontal timeline line (dashed, subtle) -->
    <line x1="0" y1="0" x2="1000" y2="0" stroke="#cbd5e1" stroke-width="1" stroke-dasharray="4,4" opacity="0.5"/>

    <!-- Month labels -->
    <text x="0" y="60" font-family="system-ui, -apple-system, sans-serif" font-size="14" fill="#64748b">July</text>
    <text x="167" y="60" font-family="system-ui, -apple-system, sans-serif" font-size="14" fill="#64748b">Aug</text>
    <text x="333" y="60" font-family="system-ui, -apple-system, sans-serif" font-size="14" fill="#64748b">Sep</text>
    <text x="500" y="60" font-family="system-ui, -apple-system, sans-serif" font-size="14" fill="#64748b">Oct</text>
    <text x="667" y="60" font-family="system-ui, -apple-system, sans-serif" font-size="14" fill="#64748b">Nov</text>
    <text x="833" y="60" font-family="system-ui, -apple-system, sans-serif" font-size="14" fill="#64748b">Dec</text>

    <!-- Many small commits along the timeline -->
    <!-- July - forgotten (many small commits) -->
    <circle cx="5" cy="0" r="2" fill="#cbd5e1" opacity="0.3"/>
    <circle cx="12" cy="0" r="2" fill="#cbd5e1" opacity="0.3"/>
    <circle cx="20" cy="0" r="8" fill="#cbd5e1" opacity="0.3"/>
    <circle cx="28" cy="0" r="2" fill="#cbd5e1" opacity="0.3"/>
    <circle cx="35" cy="0" r="3" fill="#cbd5e1" opacity="0.3"/>
    <circle cx="45" cy="0" r="12" fill="#cbd5e1" opacity="0.3"/>
    <circle cx="55" cy="0" r="2" fill="#cbd5e1" opacity="0.3"/>
    <circle cx="62" cy="0" r="3" fill="#cbd5e1" opacity="0.3"/>
    <circle cx="70" cy="0" r="2" fill="#cbd5e1" opacity="0.3"/>
    <circle cx="80" cy="0" r="6" fill="#cbd5e1" opacity="0.3"/>
    <circle cx="88" cy="0" r="2" fill="#cbd5e1" opacity="0.3"/>
    <circle cx="95" cy="0" r="3" fill="#cbd5e1" opacity="0.3"/>
    <circle cx="102" cy="0" r="2" fill="#cbd5e1" opacity="0.3"/>
    <circle cx="110" cy="0" r="3" fill="#cbd5e1" opacity="0.3"/>
    <circle cx="118" cy="0" r="2" fill="#cbd5e1" opacity="0.3"/>
    <circle cx="125" cy="0" r="2" fill="#cbd5e1" opacity="0.3"/>
    <circle cx="132" cy="0" r="3" fill="#cbd5e1" opacity="0.3"/>
    <circle cx="140" cy="0" r="2" fill="#cbd5e1" opacity="0.3"/>
    <circle cx="148" cy="0" r="3" fill="#cbd5e1" opacity="0.3"/>
    <circle cx="155" cy="0" r="2" fill="#cbd5e1" opacity="0.3"/>
    <circle cx="162" cy="0" r="2" fill="#cbd5e1" opacity="0.3"/>

    <!-- Aug - mostly forgotten -->
    <circle cx="172" cy="0" r="2" fill="#94a3b8" opacity="0.4"/>
    <circle cx="180" cy="0" r="10" fill="#94a3b8" opacity="0.4"/>
    <circle cx="188" cy="0" r="3" fill="#94a3b8" opacity="0.4"/>
    <circle cx="195" cy="0" r="2" fill="#94a3b8" opacity="0.4"/>
    <circle cx="205" cy="0" r="14" fill="#94a3b8" opacity="0.4"/>
    <text x="205" y="-25" text-anchor="middle" font-family="system-ui, -apple-system, sans-serif" font-size="12" fill="#ef4444">?</text>
    <circle cx="215" cy="0" r="2" fill="#94a3b8" opacity="0.4"/>
    <circle cx="222" cy="0" r="3" fill="#94a3b8" opacity="0.4"/>
    <circle cx="230" cy="0" r="2" fill="#94a3b8" opacity="0.4"/>
    <circle cx="238" cy="0" r="3" fill="#94a3b8" opacity="0.4"/>
    <circle cx="245" cy="0" r="2" fill="#94a3b8" opacity="0.4"/>
    <circle cx="252" cy="0" r="2" fill="#94a3b8" opacity="0.4"/>
    <circle cx="260" cy="0" r="3" fill="#94a3b8" opacity="0.4"/>
    <circle cx="268" cy="0" r="2" fill="#94a3b8" opacity="0.4"/>
    <circle cx="275" cy="0" r="3" fill="#94a3b8" opacity="0.4"/>
    <circle cx="282" cy="0" r="2" fill="#94a3b8" opacity="0.4"/>
    <circle cx="290" cy="0" r="3" fill="#94a3b8" opacity="0.4"/>
    <circle cx="298" cy="0" r="2" fill="#94a3b8" opacity="0.4"/>
    <circle cx="305" cy="0" r="2" fill="#94a3b8" opacity="0.4"/>
    <circle cx="312" cy="0" r="3" fill="#94a3b8" opacity="0.4"/>
    <circle cx="320" cy="0" r="2" fill="#94a3b8" opacity="0.4"/>
    <circle cx="328" cy="0" r="2" fill="#94a3b8" opacity="0.4"/>

    <!-- Sep - fading -->
    <circle cx="338" cy="0" r="2" fill="#64748b" opacity="0.5"/>
    <circle cx="346" cy="0" r="8" fill="#64748b" opacity="0.5"/>
    <circle cx="354" cy="0" r="2" fill="#64748b" opacity="0.5"/>
    <circle cx="361" cy="0" r="3" fill="#64748b" opacity="0.5"/>
    <circle cx="368" cy="0" r="2" fill="#64748b" opacity="0.5"/>
    <circle cx="380" cy="0" r="16" fill="#64748b" opacity="0.5"/>
    <circle cx="390" cy="0" r="2" fill="#64748b" opacity="0.5"/>
    <circle cx="398" cy="0" r="3" fill="#64748b" opacity="0.5"/>
    <circle cx="405" cy="0" r="10" fill="#64748b" opacity="0.5"/>
    <circle cx="413" cy="0" r="2" fill="#64748b" opacity="0.5"/>
    <circle cx="420" cy="0" r="3" fill="#64748b" opacity="0.5"/>
    <circle cx="428" cy="0" r="2" fill="#64748b" opacity="0.5"/>
    <circle cx="435" cy="0" r="2" fill="#64748b" opacity="0.5"/>
    <circle cx="442" cy="0" r="3" fill="#64748b" opacity="0.5"/>
    <circle cx="450" cy="0" r="2" fill="#64748b" opacity="0.5"/>
    <circle cx="458" cy="0" r="3" fill="#64748b" opacity="0.5"/>
    <circle cx="465" cy="0" r="2" fill="#64748b" opacity="0.5"/>
    <circle cx="472" cy="0" r="2" fill="#64748b" opacity="0.5"/>
    <circle cx="480" cy="0" r="3" fill="#64748b" opacity="0.5"/>
    <circle cx="488" cy="0" r="2" fill="#64748b" opacity="0.5"/>
    <circle cx="495" cy="0" r="2" fill="#64748b" opacity="0.5"/>

    <!-- Oct - vague memory -->
    <circle cx="505" cy="0" r="2" fill="#475569" opacity="0.7"/>
    <circle cx="513" cy="0" r="12" fill="#475569" opacity="0.7"/>
    <circle cx="521" cy="0" r="3" fill="#475569" opacity="0.7"/>
    <circle cx="528" cy="0" r="2" fill="#475569" opacity="0.7"/>
    <circle cx="540" cy="0" r="18" fill="#475569" opacity="0.7"/>
    <circle cx="550" cy="0" r="2" fill="#475569" opacity="0.7"/>
    <circle cx="557" cy="0" r="3" fill="#475569" opacity="0.7"/>
    <circle cx="565" cy="0" r="10" fill="#475569" opacity="0.7"/>
    <circle cx="573" cy="0" r="2" fill="#475569" opacity="0.7"/>
    <circle cx="580" cy="0" r="3" fill="#475569" opacity="0.7"/>
    <circle cx="587" cy="0" r="2" fill="#475569" opacity="0.7"/>
    <circle cx="595" cy="0" r="3" fill="#475569" opacity="0.7"/>
    <circle cx="603" cy="0" r="2" fill="#475569" opacity="0.7"/>
    <circle cx="610" cy="0" r="2" fill="#475569" opacity="0.7"/>
    <circle cx="617" cy="0" r="3" fill="#475569" opacity="0.7"/>
    <circle cx="625" cy="0" r="2" fill="#475569" opacity="0.7"/>
    <circle cx="633" cy="0" r="3" fill="#475569" opacity="0.7"/>
    <circle cx="640" cy="0" r="2" fill="#475569" opacity="0.7"/>
    <circle cx="647" cy="0" r="2" fill="#475569" opacity="0.7"/>
    <circle cx="655" cy="0" r="3" fill="#475569" opacity="0.7"/>
    <circle cx="662" cy="0" r="2" fill="#475569" opacity="0.7"/>

    <!-- Nov - clearer -->
    <circle cx="672" cy="0" r="2" fill="#3b82f6" opacity="0.9"/>
    <circle cx="680" cy="0" r="14" fill="#3b82f6" opacity="0.9"/>
    <circle cx="688" cy="0" r="3" fill="#3b82f6" opacity="0.9"/>
    <circle cx="695" cy="0" r="2" fill="#3b82f6" opacity="0.9"/>
    <circle cx="705" cy="0" r="20" fill="#3b82f6" opacity="0.9"/>
    <circle cx="715" cy="0" r="2" fill="#3b82f6" opacity="0.9"/>
    <circle cx="722" cy="0" r="3" fill="#3b82f6" opacity="0.9"/>
    <circle cx="730" cy="0" r="2" fill="#3b82f6" opacity="0.9"/>
    <circle cx="738" cy="0" r="12" fill="#3b82f6" opacity="0.9"/>
    <circle cx="746" cy="0" r="2" fill="#3b82f6" opacity="0.9"/>
    <circle cx="753" cy="0" r="3" fill="#3b82f6" opacity="0.9"/>
    <circle cx="761" cy="0" r="2" fill="#3b82f6" opacity="0.9"/>
    <circle cx="768" cy="0" r="3" fill="#3b82f6" opacity="0.9"/>
    <circle cx="775" cy="0" r="2" fill="#3b82f6" opacity="0.9"/>
    <circle cx="783" cy="0" r="3" fill="#3b82f6" opacity="0.9"/>
    <circle cx="791" cy="0" r="2" fill="#3b82f6" opacity="0.9"/>
    <circle cx="798" cy="0" r="2" fill="#3b82f6" opacity="0.9"/>
    <circle cx="805" cy="0" r="3" fill="#3b82f6" opacity="0.9"/>
    <circle cx="813" cy="0" r="2" fill="#3b82f6" opacity="0.9"/>
    <circle cx="820" cy="0" r="3" fill="#3b82f6" opacity="0.9"/>
    <circle cx="828" cy="0" r="2" fill="#3b82f6" opacity="0.9"/>

    <!-- Dec - fresh -->
    <circle cx="838" cy="0" r="2" fill="#2563eb" opacity="1"/>
    <circle cx="846" cy="0" r="16" fill="#2563eb" opacity="1" filter="url(#shadow)"/>
    <circle cx="854" cy="0" r="3" fill="#2563eb" opacity="1"/>
    <circle cx="861" cy="0" r="2" fill="#2563eb" opacity="1"/>
    <circle cx="868" cy="0" r="3" fill="#2563eb" opacity="1"/>
    <circle cx="880" cy="0" r="24" fill="#2563eb" opacity="1" filter="url(#shadow)"/>
    <circle cx="892" cy="0" r="2" fill="#2563eb" opacity="1"/>
    <circle cx="899" cy="0" r="3" fill="#2563eb" opacity="1"/>
    <circle cx="906" cy="0" r="2" fill="#2563eb" opacity="1"/>
    <circle cx="913" cy="0" r="3" fill="#2563eb" opacity="1"/>
    <circle cx="920" cy="0" r="18" fill="#2563eb" opacity="1" filter="url(#shadow)"/>
    <circle cx="930" cy="0" r="2" fill="#2563eb" opacity="1"/>
    <circle cx="937" cy="0" r="3" fill="#2563eb" opacity="1"/>
    <circle cx="944" cy="0" r="2" fill="#2563eb" opacity="1"/>
    <circle cx="951" cy="0" r="3" fill="#2563eb" opacity="1"/>
    <circle cx="958" cy="0" r="2" fill="#2563eb" opacity="1"/>
    <circle cx="965" cy="0" r="3" fill="#2563eb" opacity="1"/>
    <circle cx="972" cy="0" r="2" fill="#2563eb" opacity="1"/>
    <circle cx="979" cy="0" r="3" fill="#2563eb" opacity="1"/>
    <circle cx="986" cy="0" r="2" fill="#2563eb" opacity="1"/>
    <circle cx="993" cy="0" r="2" fill="#2563eb" opacity="1"/>
    <circle cx="1000" cy="0" r="3" fill="#2563eb" opacity="1"/>

    <!-- Labels for some key commits -->
    <text x="80" y="-30" text-anchor="middle" font-family="system-ui, -apple-system, sans-serif" font-size="11" fill="#ef4444">?</text>
    <text x="45" y="-30" text-anchor="middle" font-family="system-ui, -apple-system, sans-serif" font-size="9" fill="#94a3b8">Bug fix</text>
    <text x="380" y="-35" text-anchor="middle" font-family="system-ui, -apple-system, sans-serif" font-size="11" fill="#94a3b8">Auth refactor</text>
    <text x="320" y="-50" text-anchor="middle" font-family="system-ui, -apple-system, sans-serif" font-size="11" fill="#ef4444">?</text>

    <text x="540" y="-35" text-anchor="middle" font-family="system-ui, -apple-system, sans-serif" font-size="11" fill="#64748b">Database optimize</text>

    <text x="405" y="-30" text-anchor="middle" font-family="system-ui, -apple-system, sans-serif" font-size="11" fill="#ef4444">?</text>

    <text x="705" y="-40" text-anchor="middle" font-family="system-ui, -apple-system, sans-serif" font-size="11" fill="#3b82f6">New feature</text>

    <text x="565" y="35" text-anchor="middle" font-family="system-ui, -apple-system, sans-serif" font-size="11" fill="#94a3b8">Security patch</text>

    <text x="180" y="35" text-anchor="middle" font-family="system-ui, -apple-system, sans-serif" font-size="11" fill="#ef4444">?</text>

    <text x="930" y="35" text-anchor="middle" font-family="system-ui, -apple-system, sans-serif" font-size="12" fill="#1e293b">API update</text>
    <text x="846" y="-35" text-anchor="middle" font-family="system-ui, -apple-system, sans-serif" font-size="11" fill="#1e293b">Caching layer</text>

  </g>

  <!-- Legend -->
  <g transform="translate(100, 220)">
    <text x="0" y="0" font-family="system-ui, -apple-system, sans-serif" font-size="12" fill="#475569">Memory fade:</text>

    <rect x="100" y="-10" width="60" height="12" rx="2" fill="#cbd5e1" opacity="0.3"/>
    <text x="130" y="0" text-anchor="middle" font-family="system-ui, -apple-system, sans-serif" font-size="11" fill="#64748b">Forgotten</text>

    <rect x="180" y="-10" width="60" height="12" rx="2" fill="#64748b" opacity="0.5"/>
    <text x="210" y="0" text-anchor="middle" font-family="system-ui, -apple-system, sans-serif" font-size="11" fill="#64748b">Vague</text>

    <rect x="260" y="-10" width="60" height="12" rx="2" fill="#3b82f6" opacity="1"/>
    <text x="290" y="0" text-anchor="middle" font-family="system-ui, -apple-system, sans-serif" font-size="11" fill="#1e293b">Clear</text>
  </g>
</svg>