<svg xmlns="http://www.w3.org/2000/svg" viewBox="0 0 800 450">
  <!-- Background -->
  <rect width="800" height="450" fill="#f8fafc"/>

  <!-- Title -->
  <text x="400" y="35" font-family="Arial, sans-serif" font-size="20" fill="#1e293b" font-weight="bold" text-anchor="middle">What Meta's AI Can and Can't See</text>

  <!-- Left side - What it CAN see -->
  <g id="can-see">
    <rect x="50" y="70" width="320" height="340" fill="#f0fdf4" stroke="#22c55e" stroke-width="2" rx="8"/>

    <!-- Header -->
    <circle cx="210" cy="105" r="25" fill="#22c55e"/>
    <path d="M 200 105 L 207 112 L 222 97" stroke="#fff" stroke-width="3" fill="none" stroke-linecap="round"/>
    <text x="210" y="165" font-family="Arial, sans-serif" font-size="16" fill="#166534" font-weight="bold" text-anchor="middle">Metamate CAN Access</text>

    <!-- Items -->
    <g transform="translate(70, 190)">
      <!-- Doc item -->
      <rect width="280" height="40" fill="#fff" stroke="#d1fae5" stroke-width="1" rx="4"/>
      <rect x="10" y="10" width="24" height="20" fill="#86efac" rx="2"/>
      <line x1="16" y1="17" x2="28" y2="17" stroke="#fff" stroke-width="2"/>
      <line x1="16" y1="22" x2="28" y2="22" stroke="#fff" stroke-width="2"/>
      <text x="45" y="25" font-family="Arial, sans-serif" font-size="13" fill="#1e293b">Design docs you wrote</text>

      <!-- Email item -->
      <rect y="50" width="280" height="40" fill="#fff" stroke="#d1fae5" stroke-width="1" rx="4"/>
      <rect x="10" y="60" width="24" height="20" fill="#86efac" rx="2"/>
      <text x="20" y="75" font-family="Arial, sans-serif" font-size="16" fill="#fff">@</text>
      <text x="45" y="75" font-family="Arial, sans-serif" font-size="13" fill="#1e293b">Internal emails you sent</text>

      <!-- Forum item -->
      <rect y="100" width="280" height="40" fill="#fff" stroke="#d1fae5" stroke-width="1" rx="4"/>
      <rect x="10" y="110" width="24" height="20" fill="#86efac" rx="2"/>
      <circle cx="22" cy="120" r="6" fill="#fff"/>
      <circle cx="22" cy="120" r="3" fill="#86efac"/>
      <text x="45" y="125" font-family="Arial, sans-serif" font-size="13" fill="#1e293b">Forum posts you made</text>

      <!-- Project notes -->
      <rect y="150" width="280" height="40" fill="#fff" stroke="#d1fae5" stroke-width="1" rx="4"/>
      <rect x="10" y="160" width="24" height="20" fill="#86efac" rx="2"/>
      <path d="M 16 167 L 20 171 L 28 163" stroke="#fff" stroke-width="2" fill="none"/>
      <text x="45" y="175" font-family="Arial, sans-serif" font-size="13" fill="#1e293b">Project notes in wikis</text>
    </g>

    <text x="210" y="395" font-family="Arial, sans-serif" font-size="12" fill="#166534" text-anchor="middle" font-style="italic">If you documented it</text>
  </g>

  <!-- Right side - What it CANNOT see -->
  <g id="cannot-see">
    <rect x="430" y="70" width="320" height="340" fill="#fef2f2" stroke="#ef4444" stroke-width="2" rx="8"/>

    <!-- Header -->
    <circle cx="590" cy="105" r="25" fill="#ef4444"/>
    <line x1="580" y1="95" x2="600" y2="115" stroke="#fff" stroke-width="3" stroke-linecap="round"/>
    <line x1="600" y1="95" x2="580" y2="115" stroke="#fff" stroke-width="3" stroke-linecap="round"/>
    <text x="590" y="165" font-family="Arial, sans-serif" font-size="16" fill="#991b1b" font-weight="bold" text-anchor="middle">Metamate CANNOT See</text>

    <!-- Items -->
    <g transform="translate(450, 190)">
      <!-- Git commits -->
      <rect width="280" height="40" fill="#fff" stroke="#fecaca" stroke-width="1" rx="4"/>
      <rect x="10" y="10" width="24" height="20" fill="#fca5a5" rx="2"/>
      <text x="20" y="25" font-family="monospace" font-size="14" fill="#fff" font-weight="bold">&lt;/&gt;</text>
      <text x="45" y="25" font-family="Arial, sans-serif" font-size="13" fill="#1e293b">Git commits you made</text>

      <!-- PRs -->
      <rect y="50" width="280" height="40" fill="#fff" stroke="#fecaca" stroke-width="1" rx="4"/>
      <rect x="10" y="60" width="24" height="20" fill="#fca5a5" rx="2"/>
      <path d="M 16 70 L 28 70 M 16 70 L 20 66 M 16 70 L 20 74" stroke="#fff" stroke-width="2"/>
      <text x="45" y="75" font-family="Arial, sans-serif" font-size="13" fill="#1e293b">PRs you merged</text>

      <!-- Bugs fixed -->
      <rect y="100" width="280" height="40" fill="#fff" stroke="#fecaca" stroke-width="1" rx="4"/>
      <rect x="10" y="110" width="24" height="20" fill="#fca5a5" rx="2"/>
      <circle cx="22" cy="120" r="6" stroke="#fff" stroke-width="2" fill="none"/>
      <line x1="22" y1="114" x2="22" y2="126" stroke="#fff" stroke-width="2"/>
      <text x="45" y="125" font-family="Arial, sans-serif" font-size="13" fill="#1e293b">Bugs you fixed</text>

      <!-- Code reviews -->
      <rect y="150" width="280" height="40" fill="#fff" stroke="#fecaca" stroke-width="1" rx="4"/>
      <rect x="10" y="160" width="24" height="20" fill="#fca5a5" rx="2"/>
      <circle cx="19" cy="170" r="4" fill="#fff"/>
      <circle cx="25" cy="170" r="4" fill="#fff"/>
      <text x="45" y="175" font-family="Arial, sans-serif" font-size="13" fill="#1e293b">Code reviews you did</text>
    </g>

    <text x="590" y="395" font-family="Arial, sans-serif" font-size="12" fill="#991b1b" text-anchor="middle" font-style="italic">Your actual code work</text>
  </g>

  <!-- Bottom note -->
  <text x="400" y="435" font-family="Arial, sans-serif" font-size="14" fill="#64748b" text-anchor="middle">Without automatic capture, most technical work never makes it into your review</text>
</svg>
