<svg xmlns="http://www.w3.org/2000/svg" version="1.1" xmlns:xlink="http://www.w3.org/1999/xlink" xmlns:svgjs="http://svgjs.dev/svgjs" viewBox="0 0 11.543957648703447 3.48650107344841"><g transform="matrix(0.7356978603726333,0,0,0.7356978603726333,3.9273820390142413,1.351491426075778)"><g clip-path="url(#SvgjsClipPath11869)"><g clip-path="url(#SvgjsClipPath118673a71dd5a-037c-4d3f-b476-1b49864d7a90)"><path d=" M -1.416005786378582 -0.5844814233012111 L -1.5192230620623588 -0.34273540074163056 L -1.6224290163382513 -0.5844814233012111 C -2.54512375893207 -0.4792715798297469 -2.9642083145958162 0.5715135715702854 -2.346172658176228 1.2843094119838656 L -2.163128135498229 1.1636911323814791 L -2.253155970996463 1.3748467108369051 C -1.777136055081129 1.771288450731479 -1.1551152630861659 1.7098471701418267 -0.7855392241017165 1.3736013559696008 L -0.8753179886264895 1.1636911323814774 L -0.6922621445406067 1.2843094119838647 C -0.07422648812101729 0.5717626425437462 -0.4932997223768796 -0.4792715798297469 -1.416005786378582 -0.5844814233012111 Z M -0.7047496574373053 1.19652321524678 L -0.8989910525131597 1.06844412784845 C -0.45604096902870417 0.5588335947395474 -0.787814827086518 -0.24872242966802266 -1.4695220814490229 -0.28976253324964957 L -1.3742637555081105 -0.5123527336685093 C -0.5609677773030541 -0.40018022434802425 -0.186636747007078 0.5640527637743423 -0.7047496574373053 1.19652321524678 Z M -2.1723211187005127 1.3551474611177237 L -2.077311863733061 1.1328063316723256 C -1.7626559439680065 1.4251968710550265 -1.2756483369720806 1.4250881981806862 -0.9611229389837705 1.132557260698865 L -0.8661136840163199 1.3551474611177232 C -1.2486537711124543 1.6585707041555846 -1.7897810316043774 1.6585707041555846 -2.1723211187005127 1.3551474611177237 Z M -1.6642163328402613 -0.5123980193000484 L -1.5689693283072323 -0.28980781888118856 C -2.251163403208775 -0.2490507504966763 -2.582450440727552 0.5592977724628166 -2.1395003572430964 1.068398842216912 L -2.3337417523189505 1.1964779296152415 C -2.851798055709755 0.563781049985112 -2.4774896682295484 -0.40018022434802425 -1.6642163328402613 -0.5123527336685093 Z M -0.9394764071084418 1.013422085529359 C -1.0583511898966025 0.7353683078839096 -1.3493113725304813 0.054408266441786646 -1.4679823699767194 -0.22314736925674156 C -0.8556753459467308 -0.1818129090701157 -0.5457744479219389 0.5424175533068979 -0.9394764071084418 1.0134673711608975 Z M -1.5192230620623588 0.7391043724858221 L -1.002151721157513 1.0800825351538061 C -1.2924797981945129 1.3539158686974466 -1.7459550045223198 1.3539158686974466 -2.0362830815593185 1.0800825351538061 Z M -1.5192230620623588 0.6592658040837164 L -2.014636549683989 0.9860695640801967 C -1.5102565070177663 -0.1945494929402763 -1.5920763217996743 -0.003047878572492335 -1.5192117406544745 -0.17340110301186806 L -1.023549182059383 0.9860695640801967 Z M -2.098958395608391 1.013422085529359 C -2.493158496741816 0.5416250547549767 -2.182023565257604 -0.18185819470165399 -1.5704524327401133 -0.22314736925674156 Z" fill="url(#gradient-ed7c5511-569a-4c19-998c-9cb70eb4f687_0)" transform="matrix(1,0,0,1,0,0)" fill-rule="nonzero"></path></g></g><g><path d=" M 0.1485 1.0649999999999997 Q 0.132 1.0649999999999997 0.1215 1.0544999999999998 Q 0.111 1.0439999999999998 0.111 1.0274999999999996 L 0.111 0.05249999999999977 Q 0.111 0.03599999999999981 0.1215 0.025499999999999634 Q 0.132 0.01499999999999968 0.1485 0.01499999999999968 L 0.594 0.01499999999999968 Q 0.7185 0.01499999999999968 0.798 0.05099999999999971 Q 0.8775000000000001 0.08699999999999974 0.9157500000000001 0.1529999999999997 Q 0.9540000000000001 0.21899999999999975 0.9540000000000001 0.30749999999999966 Q 0.9540000000000001 0.36299999999999966 0.93375 0.4049999999999997 Q 0.9135 0.44699999999999973 0.88425 0.47399999999999975 Q 0.855 0.5009999999999997 0.8280000000000001 0.5144999999999997 Q 0.8865000000000001 0.5414999999999998 0.93075 0.6037499999999998 Q 0.975 0.6659999999999997 0.975 0.7514999999999997 Q 0.975 0.8459999999999998 0.933 0.9164999999999998 Q 0.891 0.9869999999999998 0.8085 1.0259999999999998 Q 0.726 1.0649999999999997 0.6075 1.0649999999999997 L 0.1485 1.0649999999999997 M 0.34950000000000003 0.8894999999999997 L 0.579 0.8894999999999997 Q 0.6525 0.8894999999999997 0.6900000000000001 0.8482499999999997 Q 0.7275 0.8069999999999997 0.7275 0.7499999999999998 Q 0.7275 0.6914999999999998 0.68925 0.6517499999999997 Q 0.651 0.6119999999999997 0.579 0.6119999999999997 L 0.34950000000000003 0.6119999999999997 L 0.34950000000000003 0.8894999999999997 M 0.34950000000000003 0.43949999999999967 L 0.5655 0.43949999999999967 Q 0.636 0.43949999999999967 0.67125 0.40424999999999967 Q 0.7065 0.36899999999999966 0.7065 0.31349999999999967 Q 0.7065 0.2579999999999997 0.67125 0.22424999999999973 Q 0.636 0.19049999999999967 0.5655 0.19049999999999967 L 0.34950000000000003 0.19049999999999967 L 0.34950000000000003 0.43949999999999967 M 1.191010986328125 1.0649999999999997 Q 1.1745109863281251 1.0649999999999997 1.164010986328125 1.0544999999999998 Q 1.153510986328125 1.0439999999999998 1.153510986328125 1.0274999999999996 L 1.153510986328125 0.05249999999999977 Q 1.153510986328125 0.03599999999999981 1.164010986328125 0.025499999999999634 Q 1.1745109863281251 0.01499999999999968 1.191010986328125 0.01499999999999968 L 1.588510986328125 0.01499999999999968 Q 1.776010986328125 0.01499999999999968 1.884010986328125 0.10124999999999973 Q 1.992010986328125 0.18749999999999967 1.992010986328125 0.3494999999999997 Q 1.992010986328125 0.45899999999999974 1.939510986328125 0.5324999999999998 Q 1.887010986328125 0.6059999999999997 1.798510986328125 0.6419999999999997 L 2.0100109863281252 1.0169999999999997 Q 2.014510986328125 1.0259999999999998 2.014510986328125 1.0334999999999996 Q 2.014510986328125 1.0454999999999997 2.005510986328125 1.0552499999999998 Q 1.9965109863281252 1.0649999999999997 1.9830109863281251 1.0649999999999997 L 1.816510986328125 1.0649999999999997 Q 1.7895109863281249 1.0649999999999997 1.776010986328125 1.0507499999999996 Q 1.762510986328125 1.0364999999999998 1.756510986328125 1.0244999999999997 L 1.5735109863281251 0.6809999999999997 L 1.392010986328125 0.6809999999999997 L 1.392010986328125 1.0274999999999996 Q 1.392010986328125 1.0439999999999998 1.381510986328125 1.0544999999999998 Q 1.371010986328125 1.0649999999999997 1.354510986328125 1.0649999999999997 L 1.191010986328125 1.0649999999999997 M 1.392010986328125 0.4904999999999997 L 1.584010986328125 0.4904999999999997 Q 1.666510986328125 0.4904999999999997 1.706260986328125 0.45299999999999974 Q 1.746010986328125 0.41549999999999976 1.746010986328125 0.34799999999999975 Q 1.746010986328125 0.28049999999999975 1.7070109863281249 0.24149999999999971 Q 1.6680109863281252 0.20249999999999968 1.584010986328125 0.20249999999999968 L 1.392010986328125 0.20249999999999968 L 1.392010986328125 0.4904999999999997 M 2.115021240234375 1.0649999999999997 Q 2.101521240234375 1.0649999999999997 2.092521240234375 1.0552499999999998 Q 2.083521240234375 1.0454999999999997 2.083521240234375 1.0334999999999996 Q 2.083521240234375 1.0259999999999998 2.085021240234375 1.0199999999999998 L 2.442021240234375 0.05549999999999966 Q 2.4465212402343752 0.0389999999999997 2.460021240234375 0.02699999999999969 Q 2.473521240234375 0.01499999999999968 2.497521240234375 0.01499999999999968 L 2.689521240234375 0.01499999999999968 Q 2.713521240234375 0.01499999999999968 2.727021240234375 0.02699999999999969 Q 2.740521240234375 0.0389999999999997 2.745021240234375 0.05549999999999966 L 3.102021240234375 1.0199999999999998 Q 3.1035212402343753 1.0259999999999998 3.1035212402343753 1.0334999999999996 Q 3.1035212402343753 1.0454999999999997 3.094521240234375 1.0552499999999998 Q 3.085521240234375 1.0649999999999997 3.072021240234375 1.0649999999999997 L 2.9160212402343753 1.0649999999999997 Q 2.8935212402343753 1.0649999999999997 2.883021240234375 1.0544999999999998 Q 2.872521240234375 1.0439999999999998 2.8695212402343753 1.0349999999999997 L 2.805021240234375 0.8669999999999998 L 2.382021240234375 0.8669999999999998 L 2.317521240234375 1.0349999999999997 Q 2.314521240234375 1.0439999999999998 2.304021240234375 1.0544999999999998 Q 2.293521240234375 1.0649999999999997 2.271021240234375 1.0649999999999997 L 2.115021240234375 1.0649999999999997 M 2.437521240234375 0.6734999999999998 L 2.748021240234375 0.6734999999999998 L 2.593521240234375 0.24149999999999971 L 2.437521240234375 0.6734999999999998 M 3.6314685058593748 1.0799999999999996 Q 3.490468505859375 1.0799999999999996 3.390718505859375 1.0327499999999996 Q 3.290968505859375 0.9854999999999997 3.236218505859375 0.8947499999999997 Q 3.181468505859375 0.8039999999999997 3.176968505859375 0.6749999999999997 Q 3.175468505859375 0.6104999999999997 3.175468505859375 0.5369999999999997 Q 3.175468505859375 0.4634999999999997 3.176968505859375 0.39749999999999974 Q 3.181468505859375 0.27149999999999974 3.236218505859375 0.18299999999999972 Q 3.290968505859375 0.0944999999999997 3.392218505859375 0.04724999999999979 Q 3.493468505859375 -2.220446049250313e-16 3.6314685058593748 -2.220446049250313e-16 Q 3.742468505859375 -2.220446049250313e-16 3.826468505859375 0.028499999999999748 Q 3.910468505859375 0.05699999999999972 3.967468505859375 0.10274999999999967 Q 4.0244685058593745 0.14849999999999974 4.054468505859375 0.20249999999999968 Q 4.084468505859375 0.25649999999999973 4.085968505859375 0.3059999999999997 Q 4.085968505859375 0.3194999999999997 4.076968505859375 0.3292499999999997 Q 4.067968505859375 0.33899999999999975 4.052968505859375 0.33899999999999975 L 3.866968505859375 0.33899999999999975 Q 3.851968505859375 0.33899999999999975 3.843718505859375 0.33299999999999974 Q 3.835468505859375 0.32699999999999974 3.829468505859375 0.3149999999999997 Q 3.8189685058593748 0.2879999999999997 3.7957185058593748 0.26024999999999976 Q 3.7724685058593748 0.2324999999999997 3.733468505859375 0.21299999999999975 Q 3.694468505859375 0.19349999999999967 3.6314685058593748 0.19349999999999967 Q 3.536968505859375 0.19349999999999967 3.482218505859375 0.24299999999999966 Q 3.427468505859375 0.29249999999999976 3.422968505859375 0.4049999999999997 Q 3.418468505859375 0.5339999999999997 3.422968505859375 0.6674999999999998 Q 3.427468505859375 0.7844999999999998 3.483718505859375 0.8354999999999997 Q 3.539968505859375 0.8864999999999997 3.634468505859375 0.8864999999999997 Q 3.695968505859375 0.8864999999999997 3.744718505859375 0.8647499999999997 Q 3.793468505859375 0.8429999999999997 3.821968505859375 0.7964999999999998 Q 3.850468505859375 0.7499999999999998 3.850468505859375 0.6779999999999997 L 3.850468505859375 0.6404999999999997 L 3.686968505859375 0.6404999999999997 Q 3.671968505859375 0.6404999999999997 3.661468505859375 0.6292499999999996 Q 3.650968505859375 0.6179999999999997 3.650968505859375 0.6029999999999998 L 3.650968505859375 0.5069999999999997 Q 3.650968505859375 0.4904999999999997 3.661468505859375 0.47999999999999976 Q 3.671968505859375 0.4694999999999997 3.686968505859375 0.4694999999999997 L 4.054468505859375 0.4694999999999997 Q 4.0709685058593745 0.4694999999999997 4.081468505859375 0.47999999999999976 Q 4.091968505859375 0.4904999999999997 4.091968505859375 0.5069999999999997 L 4.091968505859375 0.6704999999999997 Q 4.091968505859375 0.7994999999999997 4.035718505859375 0.8909999999999997 Q 3.979468505859375 0.9824999999999997 3.875218505859375 1.0312499999999998 Q 3.770968505859375 1.0799999999999996 3.6314685058593748 1.0799999999999996 M 4.644013916015625 1.0649999999999997 Q 4.627513916015625 1.0649999999999997 4.617013916015625 1.0544999999999998 Q 4.606513916015625 1.0439999999999998 4.606513916015625 1.0274999999999996 L 4.606513916015625 0.05249999999999977 Q 4.606513916015625 0.03599999999999981 4.617013916015625 0.025499999999999634 Q 4.627513916015625 0.01499999999999968 4.644013916015625 0.01499999999999968 L 5.020513916015625 0.01499999999999968 Q 5.170513916015625 0.01499999999999968 5.271013916015625 0.062249999999999694 Q 5.371513916015625 0.10949999999999971 5.424763916015625 0.2002499999999997 Q 5.478013916015625 0.2909999999999997 5.481013916015625 0.42449999999999977 Q 5.482513916015625 0.4904999999999997 5.482513916015625 0.5399999999999997 Q 5.482513916015625 0.5894999999999997 5.481013916015625 0.6539999999999997 Q 5.476513916015625 0.7934999999999997 5.425513916015625 0.8849999999999998 Q 5.374513916015625 0.9764999999999997 5.275513916015625 1.0207499999999998 Q 5.176513916015625 1.0649999999999997 5.028013916015625 1.0649999999999997 L 4.644013916015625 1.0649999999999997 M 4.845013916015625 0.8714999999999997 L 5.020513916015625 0.8714999999999997 Q 5.095513916015625 0.8714999999999997 5.143513916015625 0.8489999999999998 Q 5.191513916015625 0.8264999999999997 5.214763916015625 0.7777499999999997 Q 5.238013916015625 0.7289999999999996 5.239513916015625 0.6509999999999997 Q 5.241013916015625 0.6074999999999997 5.241763916015625 0.5729999999999997 Q 5.242513916015625 0.5384999999999998 5.241763916015625 0.5039999999999997 Q 5.241013916015625 0.4694999999999997 5.239513916015625 0.42749999999999966 Q 5.236513916015625 0.3149999999999997 5.181763916015625 0.2617499999999997 Q 5.127013916015625 0.20849999999999969 5.013013916015625 0.20849999999999969 L 4.845013916015625 0.20849999999999969 L 4.845013916015625 0.8714999999999997 M 6.0869904785156255 1.0799999999999996 Q 5.950490478515625 1.0799999999999996 5.851490478515625 1.0349999999999997 Q 5.752490478515625 0.9899999999999998 5.696990478515625 0.8992499999999997 Q 5.641490478515625 0.8084999999999998 5.636990478515625 0.6704999999999997 Q 5.635490478515625 0.6059999999999997 5.635490478515625 0.5422499999999997 Q 5.635490478515625 0.4784999999999997 5.636990478515625 0.41249999999999976 Q 5.641490478515625 0.27749999999999975 5.697740478515625 0.1852499999999997 Q 5.753990478515625 0.09299999999999975 5.853740478515625 0.046499999999999764 Q 5.953490478515625 -2.220446049250313e-16 6.0869904785156255 -2.220446049250313e-16 Q 6.218990478515625 -2.220446049250313e-16 6.318740478515625 0.046499999999999764 Q 6.418490478515625 0.09299999999999975 6.475490478515625 0.1852499999999997 Q 6.532490478515625 0.27749999999999975 6.535490478515625 0.41249999999999976 Q 6.538490478515625 0.4784999999999997 6.538490478515625 0.5422499999999997 Q 6.538490478515625 0.6059999999999997 6.535490478515625 0.6704999999999997 Q 6.5309904785156245 0.8084999999999998 6.475490478515625 0.8992499999999997 Q 6.419990478515625 0.9899999999999998 6.3209904785156255 1.0349999999999997 Q 6.221990478515625 1.0799999999999996 6.0869904785156255 1.0799999999999996 M 6.0869904785156255 0.8864999999999997 Q 6.173990478515625 0.8864999999999997 6.230240478515625 0.8332499999999997 Q 6.286490478515625 0.7799999999999997 6.289490478515625 0.6629999999999997 Q 6.292490478515625 0.5969999999999998 6.292490478515625 0.5392499999999997 Q 6.292490478515625 0.4814999999999997 6.289490478515625 0.4169999999999997 Q 6.287990478515625 0.33899999999999975 6.260990478515625 0.28949999999999976 Q 6.233990478515625 0.23999999999999966 6.189740478515625 0.21674999999999967 Q 6.145490478515625 0.19349999999999967 6.0869904785156255 0.19349999999999967 Q 6.028490478515625 0.19349999999999967 5.983490478515625 0.21674999999999967 Q 5.938490478515625 0.23999999999999966 5.912240478515625 0.28949999999999976 Q 5.885990478515625 0.33899999999999975 5.882990478515625 0.4169999999999997 Q 5.881490478515625 0.4814999999999997 5.881490478515625 0.5392499999999997 Q 5.881490478515625 0.5969999999999998 5.882990478515625 0.6629999999999997 Q 5.887490478515625 0.7799999999999997 5.942990478515625 0.8332499999999997 Q 5.998490478515625 0.8864999999999997 6.0869904785156255 0.8864999999999997 M 7.1414948730468755 1.0799999999999996 Q 7.0004948730468755 1.0799999999999996 6.902244873046875 1.0327499999999996 Q 6.803994873046875 0.9854999999999997 6.749994873046875 0.8947499999999997 Q 6.695994873046875 0.8039999999999997 6.689994873046875 0.6734999999999998 Q 6.688494873046875 0.6119999999999997 6.688494873046875 0.5414999999999998 Q 6.688494873046875 0.47099999999999975 6.689994873046875 0.40649999999999975 Q 6.695994873046875 0.27749999999999975 6.750744873046875 0.18674999999999975 Q 6.805494873046875 0.09599999999999975 6.904494873046875 0.0479999999999996 Q 7.003494873046875 -2.220446049250313e-16 7.1414948730468755 -2.220446049250313e-16 Q 7.241994873046875 -2.220446049250313e-16 7.324494873046875 0.025499999999999634 Q 7.406994873046875 0.05099999999999971 7.466994873046875 0.09899999999999975 Q 7.526994873046875 0.1469999999999997 7.559994873046875 0.2114999999999997 Q 7.592994873046875 0.2759999999999997 7.595994873046875 0.3554999999999997 Q 7.595994873046875 0.36899999999999966 7.586244873046875 0.37799999999999967 Q 7.576494873046875 0.3869999999999997 7.5629948730468755 0.3869999999999997 L 7.391994873046875 0.3869999999999997 Q 7.373994873046875 0.3869999999999997 7.363494873046875 0.37799999999999967 Q 7.352994873046875 0.36899999999999966 7.346994873046875 0.34799999999999975 Q 7.324494873046875 0.25949999999999973 7.271994873046875 0.2264999999999997 Q 7.219494873046875 0.19349999999999967 7.1414948730468755 0.19349999999999967 Q 7.048494873046875 0.19349999999999967 6.994494873046875 0.24449999999999972 Q 6.940494873046875 0.29549999999999976 6.935994873046875 0.4139999999999997 Q 6.931494873046875 0.5369999999999997 6.935994873046875 0.6659999999999997 Q 6.940494873046875 0.7844999999999998 6.994494873046875 0.8354999999999997 Q 7.048494873046875 0.8864999999999997 7.1414948730468755 0.8864999999999997 Q 7.219494873046875 0.8864999999999997 7.272744873046875 0.8527499999999997 Q 7.325994873046875 0.8189999999999997 7.346994873046875 0.7319999999999998 Q 7.352994873046875 0.7094999999999998 7.363494873046875 0.7012499999999997 Q 7.373994873046875 0.6929999999999997 7.391994873046875 0.6929999999999997 L 7.5629948730468755 0.6929999999999997 Q 7.576494873046875 0.6929999999999997 7.586244873046875 0.7019999999999997 Q 7.595994873046875 0.7109999999999997 7.595994873046875 0.7244999999999997 Q 7.592994873046875 0.8039999999999997 7.559994873046875 0.8684999999999997 Q 7.526994873046875 0.9329999999999997 7.466994873046875 0.9809999999999998 Q 7.406994873046875 1.0289999999999997 7.324494873046875 1.0544999999999998 Q 7.241994873046875 1.0799999999999996 7.1414948730468755 1.0799999999999996" fill="#173054" fill-rule="nonzero"></path></g><g></g></g><defs><clipPath id="SvgjsClipPath11869"><path d=" M -2.6384348027168336 -0.5844814233012111 h 2.2384348027168337 v 2.233962846602422 h -2.2384348027168337 Z"></path></clipPath><clipPath id="SvgjsClipPath118673a71dd5a-037c-4d3f-b476-1b49864d7a90"><path d=" M -2.6384348027168336 -0.5844814233012111 L -0.3999999999999999 -0.5844814233012111 L -0.3999999999999999 1.6494814233012107 L -2.6384348027168336 1.6494814233012107 Z"></path></clipPath><linearGradient id="gradient-ed7c5511-569a-4c19-998c-9cb70eb4f687_0" x1="0" x2="1" y1="0" y2="1"><stop stop-color="#225777" offset="0"></stop><stop stop-color="#173054" offset="1"></stop></linearGradient></defs></svg>